HIERARCHY
ROOT hip
{
	OFFSET 0.000000 0.000000 0.000000 
	CHANNELS 6 Xposition Yposition Zposition Xrotation Zrotation Yrotation
	JOINT abdomen
	{
		OFFSET 0.000000 3.402643 0.000000 
		CHANNELS 3 Xrotation Zrotation Yrotation
		JOINT chest
		{
			OFFSET 0.000000 8.438565 -0.680529 
			CHANNELS 3 Xrotation Zrotation Yrotation
			JOINT neck
			{
				OFFSET 0.000000 10.207942 -0.272212 
				CHANNELS 3 Xrotation Zrotation Yrotation
				JOINT head
				{
					OFFSET 0.000000 3.130431 0.000000 
					CHANNELS 3 Xrotation Zrotation Yrotation
					End Site
					{
						OFFSET 0.000000 3.130435 0.000000 
					}
				}
			}
			JOINT lCollar
			{
				OFFSET 3.470700 6.669187 -0.816635 
				CHANNELS 3 Yrotation Zrotation Xrotation
				JOINT lShldr
				{
					OFFSET 3.198488 0.000000 0.000000 
					CHANNELS 3 Zrotation Yrotation Xrotation
					JOINT lForeArm
					{
						OFFSET 10.139888 0.000000 0.000000 
						CHANNELS 3 Yrotation Zrotation Xrotation
						JOINT lHand
						{
							OFFSET 8.370511 0.000000 0.000000 
							CHANNELS 3 Zrotation Yrotation Xrotation
							End Site
							{
								OFFSET 4.083176 0.000000 0.000000 
							}
						}
					}
				}
			}
			JOINT rCollar
			{
				OFFSET -3.470700 6.669187 -0.816635 
				CHANNELS 3 Yrotation Zrotation Xrotation
				JOINT rShldr
				{
					OFFSET -3.198488 0.000000 0.000000 
					CHANNELS 3 Zrotation Yrotation Xrotation
					JOINT rForeArm
					{
						OFFSET -10.139888 0.000000 0.000000 
						CHANNELS 3 Yrotation Zrotation Xrotation
						JOINT rHand
						{
							OFFSET -8.370511 0.000000 0.000000 
							CHANNELS 3 Zrotation Yrotation Xrotation
							End Site
							{
								OFFSET -4.083176 0.000000 0.000000 
							}
						}
					}
				}
			}
		}
	}
	JOINT lThigh
	{
		OFFSET 5.308129 -1.633274 1.361059 
		CHANNELS 3 Xrotation Zrotation Yrotation
		JOINT lShin
		{
			OFFSET -2.041588 -20.007561 0.000000 
			CHANNELS 3 Xrotation Zrotation Yrotation
			JOINT lFoot
			{
				OFFSET 0.000000 -19.190928 -1.224953 
				CHANNELS 3 Xrotation Yrotation Zrotation
				End Site
				{
					OFFSET 0.000000 -2.449906 4.627600 
				}
			}
		}
	}
	JOINT rThigh
	{
		OFFSET -5.308129 -1.633274 1.361059 
		CHANNELS 3 Xrotation Zrotation Yrotation
		JOINT rShin
		{
			OFFSET 2.041588 -20.007561 0.000000 
			CHANNELS 3 Xrotation Zrotation Yrotation
			JOINT rFoot
			{
				OFFSET 0.000000 -19.190928 -1.224953 
				CHANNELS 3 Xrotation Yrotation Zrotation
				End Site
				{
					OFFSET 0.000000 -2.449906 4.627600 
				}
			}
		}
	}
}
MOTION
Frames: 13
Frame Time: 0.016667
-1.685081 24.159836 -7.203579 -12.775101 -19.692078 -3.527369 42.881580 18.837675 0.216974 -2.355820 0.526892 -3.378985 -2.293736 -2.278335 -0.110137 20.231113 -1.327870 -1.123424 -10.748525 -9.013851 -0.466266 -46.824081 1.216540 -5.412841 -75.239853 -5.000000 1.222136 -15.443828 -9.201332 23.316322 -6.847178 4.625260 -0.237273 69.161942 0.424724 -6.433605 84.001884 5.000000 3.852089 2.721118 -24.285677 12.677056 -88.719101 40.037281 -23.027893 144.975876 8.550735 -4.818160 -49.256870 -4.141209 -10.959326 -22.250265 6.222630 -35.896267 144.981628 -9.991788 10.221310 -73.297096 -16.394388 -35.802856 
-1.649740 24.090349 -7.287427 -11.988944 -18.976389 -4.598096 42.754036 18.120787 0.394307 -2.234797 0.507493 -2.900397 -2.975049 -2.631776 -0.096179 19.141319 -1.630375 -1.397308 -10.170359 -8.770043 -0.453692 -45.172348 3.021558 -6.402115 -79.329018 -5.000000 1.381973 -13.904119 -9.984378 18.340492 -7.336912 4.264417 -0.218616 68.640236 -1.261167 -8.826987 88.150894 5.000000 1.171814 1.948679 -26.046043 11.504729 -88.806534 40.378689 -21.340052 144.974075 8.892219 -4.983746 -49.448444 -3.142860 -10.345936 -23.342535 5.774461 -35.030212 144.972397 -9.997051 9.905672 -73.787437 -16.611544 -36.070606 
-1.596468 23.968908 -7.398421 -11.329675 -18.539293 -5.295530 42.895374 17.774374 0.821050 -2.123435 0.468539 -2.441428 -4.000574 -2.900678 -0.045659 18.042086 -1.844919 -1.670942 -9.777036 -8.428712 -0.436074 -43.302910 4.088198 -6.846719 -82.561996 -5.000000 1.240771 -13.331541 -10.043510 16.348270 -7.562339 3.865848 -0.207590 67.866653 -2.471176 -10.384784 91.183296 5.000000 -0.699946 2.177039 -27.182125 9.726129 -89.226746 40.183315 -20.807343 144.986786 8.781103 -4.859945 -49.253086 -2.641221 -10.036259 -24.398453 5.441968 -34.582348 144.982742 -9.997380 9.577566 -73.991379 -16.711660 -36.263390 
-1.523388 23.790739 -7.540350 -10.791909 -18.373394 -5.650511 43.319969 17.798115 1.502729 -2.032148 0.419786 -2.011751 -5.360482 -3.057531 0.027371 16.931826 -1.961761 -1.944560 -9.558816 -7.980105 -0.411539 -41.192886 4.393946 -6.791569 -84.919838 -5.000000 0.991663 -13.706565 -9.536067 17.338131 -7.524735 3.446481 -0.185892 66.785675 -3.199207 -11.099965 93.114227 5.000000 -1.749439 3.394371 -27.626715 7.313198 -89.930809 39.472534 -21.440601 144.987686 8.223572 -4.493917 -48.672039 -2.747729 -10.082558 -25.410137 5.243968 -34.557381 144.993790 -10.000000 9.242002 -73.990250 -16.700150 -36.454350 
-1.441501 23.582466 -7.687454 -10.268034 -18.247458 -5.956110 43.745434 17.871204 2.221218 -1.931747 0.380777 -1.591771 -6.651864 -3.235152 0.094213 15.880229 -2.088334 -2.179490 -9.430018 -7.539648 -0.398464 -39.093357 4.502146 -6.640645 -86.910805 -5.000000 0.690304 -14.136814 -9.053813 18.411186 -7.360102 2.997834 -0.162671 65.698593 -3.838672 -11.672688 94.653488 5.000000 -2.477170 4.538212 -27.992086 5.297850 -90.660072 38.690804 -22.134312 144.986618 7.666900 -4.124236 -48.141933 -2.851481 -10.216641 -26.399885 5.061150 -34.538422 144.973480 -9.992472 8.900260 -73.948555 -16.710567 -36.585686 
-1.349187 23.341705 -7.830254 -9.872240 -18.323553 -6.011649 44.152248 18.200190 3.184328 -1.871759 0.390571 -1.249978 -7.572013 -3.452855 0.156723 15.190568 -2.215238 -2.150228 -9.739832 -7.149500 -0.378333 -37.103745 3.526855 -6.104957 -86.888405 -5.000000 0.740096 -14.878811 -8.804276 19.923878 -6.473094 2.354014 -0.129350 64.510971 -3.960151 -11.431506 94.515770 5.000000 -2.267390 5.091443 -28.159609 5.526836 -91.611435 37.519608 -23.265839 144.994843 7.138780 -3.757099 -47.892052 -2.806831 -10.827286 -27.309809 4.894801 -34.837948 144.985291 -9.998388 8.555119 -73.874718 -16.776302 -36.532074 
-1.253937 23.080900 -7.975868 -9.501236 -18.440422 -6.005484 44.540695 18.573009 4.168420 -1.811814 0.410124 -0.898419 -8.414429 -3.680211 0.220676 14.557064 -2.322686 -2.081931 -10.137677 -6.759336 -0.358181 -35.147022 2.345200 -5.535321 -86.490250 -5.000000 0.876926 -15.677890 -8.556123 21.519417 -5.449058 1.671158 -0.093990 63.315464 -3.966913 -11.047012 94.095802 5.000000 -1.929158 5.532617 -28.295420 6.164749 -92.560707 36.278629 -24.439367 144.979080 6.593420 -3.423863 -47.639336 -2.690707 -11.478322 -28.178345 4.729184 -35.140339 144.985199 -9.998428 8.249483 -73.804573 -16.783676 -36.407215 
-1.176015 22.840021 -8.128251 -9.288356 -18.613232 -5.761668 44.983482 19.016245 5.095632 -1.683767 0.419902 -0.634751 -9.189152 -3.701874 0.273235 14.044804 -2.391243 -1.916062 -10.731681 -6.486168 -0.342952 -33.526840 0.574824 -5.001101 -85.205589 -5.000000 1.220342 -16.018255 -8.564926 22.122248 -4.199657 1.445920 -0.072397 61.511734 -3.444560 -10.161919 93.013130 5.000000 -1.320074 6.472762 -28.065098 6.698220 -93.310669 34.892075 -25.349102 144.991745 6.086221 -3.084771 -47.633575 -2.513194 -11.740829 -28.904451 4.551311 -35.578285 144.984009 -9.998012 7.980163 -73.979347 -16.712959 -36.315117 
-1.112297 22.612247 -8.287371 -9.228171 -18.861057 -5.277215 45.473278 19.533928 5.926643 -1.497648 0.419907 -0.468737 -9.904818 -3.519307 0.305392 13.673975 -2.401310 -1.681486 -11.502226 -6.330001 -0.334888 -32.250027 -1.767112 -4.517388 -83.039894 -5.000000 1.771726 -15.899365 -8.861578 21.765516 -2.734468 1.689736 -0.084995 59.118095 -2.359176 -8.798404 91.280571 5.000000 -0.494564 7.912050 -27.466463 7.143098 -93.865326 33.349419 -25.954866 144.991760 5.652328 -2.777526 -47.859825 -2.195694 -11.623079 -29.430681 4.376637 -36.139427 144.972015 -9.997336 7.742026 -74.403625 -16.463066 -36.115040 
-1.069244 22.416128 -8.450086 -9.185539 -19.069019 -4.786509 45.939754 19.994526 6.691559 -1.292508 0.449206 -0.351549 -10.571206 -3.307771 0.332558 13.338426 -2.411432 -1.358685 -12.301276 -6.214918 -0.319343 -31.111982 -4.016288 -4.113552 -80.951324 -5.000000 2.286683 -15.831325 -9.170691 21.644957 -1.102999 2.050582 -0.103987 56.635075 -1.193646 -7.464425 89.499237 5.000000 0.268539 9.225196 -26.760761 7.670356 -94.357956 31.894436 -26.475012 144.994186 5.227256 -2.536790 -48.127605 -1.925766 -11.441036 -29.947115 4.191199 -36.628696 144.977036 -9.993781 7.552578 -74.771896 -16.221512 -35.909904 
-1.046335 22.258142 -8.620779 -9.230293 -19.119640 -4.311040 46.242687 20.185690 6.970288 -1.041134 0.615205 -0.517546 -10.972171 -2.943206 0.326743 13.181338 -2.402192 -0.645193 -13.249379 -6.361205 -0.326885 -30.616848 -5.756062 -3.958879 -79.264412 -5.000000 2.545487 -16.039913 -9.548661 22.847660 1.367997 3.085290 -0.118550 53.534424 0.180542 -6.046081 87.273888 5.000000 1.121834 9.923967 -25.311775 8.504947 -94.626366 30.781101 -26.275852 144.978714 4.959089 -2.380590 -48.668667 -1.488558 -10.682825 -30.357410 3.967021 -36.946899 144.984924 -9.998424 7.341310 -74.929474 -15.957213 -35.451183 
-1.044259 22.132282 -8.789445 -9.284290 -19.139648 -3.847964 46.499779 20.318316 7.143067 -0.781448 0.800719 -0.742254 -11.323448 -2.551136 0.306921 13.070078 -2.382805 0.146358 -14.227091 -6.556254 -0.336936 -30.249569 -7.411425 -3.844731 -77.668663 -5.000000 2.695752 -16.328983 -9.935800 24.280336 3.999422 4.236522 -0.197673 50.361298 1.662861 -4.690860 84.970657 5.000000 1.922307 10.538842 -23.750397 9.415344 -94.876877 29.736290 -25.983946 144.993652 4.695708 -2.243598 -49.248775 -1.043374 -9.808134 -30.756834 3.762516 -37.218254 144.981659 -9.997441 7.142940 -75.061996 -15.713091 -34.953484 
-1.072710 22.040739 -8.928157 -9.487082 -19.118929 -3.412535 46.691002 20.363138 7.115439 -0.473416 0.995989 -0.918013 -11.370863 -2.104054 0.259049 13.098833 -2.421609 0.850088 -15.469053 -6.839075 -0.352666 -30.282057 -8.612318 -3.814895 -76.495224 -5.000000 2.597274 -16.714808 -10.538721 25.712132 6.621068 5.349199 -0.255242 47.629879 3.271590 -3.389820 82.343407 5.000000 2.779077 10.402410 -22.215267 10.728162 -95.016930 29.043013 -25.573963 144.964920 4.623998 -2.236200 -49.431644 -0.746072 -9.063457 -30.902699 3.596698 -37.331787 144.985397 -9.993449 6.997910 -75.109192 -15.522574 -34.447674 
